<?xml version="1.0" encoding="UTF-8"?>
<svg xmlns="http://www.w3.org/2000/svg" xmlns:xlink="http://www.w3.org/1999/xlink" viewBox="0 0 48 48" width="48px" height="48px">
<defs>
<linearGradient id="linear0" gradientUnits="userSpaceOnUse" x1="26.99683" y1="26.99683" x2="98.745918" y2="98.745918" gradientTransform="matrix(0.27907,0,0,0.27907,0,0)">
<stop offset="0" style="stop-color:rgb(90.196079%,49.411765%,13.333334%);stop-opacity:1;"/>
<stop offset="0.443" style="stop-color:rgb(90.196079%,49.411765%,13.333334%);stop-opacity:1;"/>
<stop offset="1" style="stop-color:rgb(90.588236%,29.803923%,23.529412%);stop-opacity:1;"/>
</linearGradient>
<linearGradient id="linear1" gradientUnits="userSpaceOnUse" x1="98.086578" y1="98.086578" x2="145.150085" y2="145.150085" gradientTransform="matrix(0.27907,0,0,0.27907,0,0)">
<stop offset="0" style="stop-color:rgb(65.882355%,7.843138%,18.039216%);stop-opacity:1;"/>
<stop offset="0.179" style="stop-color:rgb(90.588236%,29.803923%,23.529412%);stop-opacity:1;"/>
<stop offset="0.243" style="stop-color:rgb(90.588236%,29.803923%,23.529412%);stop-opacity:1;"/>
</linearGradient>
</defs>
<g id="surface8417662">
<path style=" stroke:none;fill-rule:nonzero;fill:url(#linear0);" d="M 42.421875 12.402344 C 43.195312 11.628906 43.195312 10.371094 42.421875 9.597656 L 38.402344 5.578125 C 37.628906 4.804688 36.371094 4.804688 35.597656 5.578125 L 24 17.179688 L 12.402344 5.578125 C 11.628906 4.804688 10.371094 4.804688 9.597656 5.578125 L 5.578125 9.597656 C 4.804688 10.371094 4.804688 11.628906 5.578125 12.402344 L 17.179688 24 L 5.578125 35.597656 C 4.804688 36.371094 4.804688 37.628906 5.578125 38.402344 L 9.597656 42.421875 C 10.371094 43.195312 11.628906 43.195312 12.402344 42.421875 Z M 42.421875 12.402344 "/>
<path style=" stroke:none;fill-rule:nonzero;fill:url(#linear1);" d="M 24 30.820312 L 35.597656 42.421875 C 36.371094 43.195312 37.628906 43.195312 38.402344 42.421875 L 42.421875 38.402344 C 43.195312 37.628906 43.195312 36.371094 42.421875 35.597656 L 30.820312 24 Z M 24 30.820312 "/>
</g>
</svg>
